# xmcd
#
# Track frame offsets:
#	150
#	8450
#	18552
#	26525
#	40264
#	49932
#	61965
#	70200
#	81207
#	93455
#	103455
#	113302
#	123862
#	135240
#	144210
#	157342
#	166755
#	179962
#
# Disc length: 2574 seconds
#
# Revision: 3
# Processed by: cddbd v1.5.2PL0 Copyright (c) Steve Scherf et al.
# Submitted via: audiograbber 1.83.01
#
DISCID=eb0a0c12
DTITLE=Hi-Lo's - Nice Work If You Can Get It - Best Of
DYEAR=1900
DGENRE=Oldies
TTITLE0=Birth Of The Blues
TTITLE1=You Must Have Been A Beautiful Baby
TTITLE2=Chinatown, My Chinatown
TTITLE3=The Surrey With The Fringe On Top
TTITLE4=Too Young For The Blues
TTITLE5=You Took Advantage Of Me
TTITLE6=Nice Work If You Can Get It
TTITLE7=Long Ago And Far Away
TTITLE8=They Didn't Believe Me
TTITLE9=Rockin' Chair
TTITLE10=I Thought About You
TTITLE11=My Baby Just Cares For Me
TTITLE12=Skylark
TTITLE13=Button Up Your Overcoat
TTITLE14=Shadow Waltz
TTITLE15=Jeepers Creepers
TTITLE16=Lulu's Back In Town
TTITLE17=Clap Yo' Hands
EXTD=
EXTT0=
EXTT1=
EXTT2=
EXTT3=
EXTT4=
EXTT5=
EXTT6=
EXTT7=
EXTT8=
EXTT9=
EXTT10=
EXTT11=
EXTT12=
EXTT13=
EXTT14=
EXTT15=
EXTT16=
EXTT17=
PLAYORDER=
